# xmcd
#
# Track frame offsets:
#	150
#	15331
#	39735
#	56952
#	76700
#	91072
#	107399
#	123465
#	141213
#	163238
#	181398
#	199442
#	218945
#	235698
#	256517
#	271152
#
# Disc length: 3845 seconds
#
# Revision: 0
# Processed by: cddbd v1.5.1PL0 Copyright (c) Steve Scherf et al.
# Submitted via: dBpowerAMP V4.0
#
DISCID=d30f0310
DTITLE=Chitãozinho and Xororó e Zezé Di Camargo and Luciano - Dose Dupla
DYEAR=1900
DGENRE=Country
TTITLE0=Alô - Chitãozinho and Xororó
TTITLE1=Preciso Ser Amado - Zezé Di Camargo and Luciano
TTITLE2=Eu Menti - Chitãozinho and Xororó
TTITLE3=Cada Volta É Um Recomeço - Zezé Di Camargo and Luciano
TTITLE4=Nada É Igual Ao Amor -  Chitãozinho and Xororó
TTITLE5=Irresistiível - Zezé Di Camargo and Luciano
TTITLE6=Página De Amigos -  Chitãozinho and Xororó
TTITLE7=Tranque A Porta E Me Beija - Zezé Di Camargo and Luciano
TTITLE8=Evidências -  Chitãozinho and Xororó
TTITLE9=Será Que Foi Saudade - Zezé Di Camargo and Luciano
TTITLE10=Brincar De Ser Feliz -  Chitãozinho and Xororó
TTITLE11=Dou A Vida Por Um Beijo - Zezé Di Camargo and Luciano
TTITLE12=Eu Quero Bis -  Chitãozinho and Xororó
TTITLE13=Vivendo Por Viver - Zezé Di Camargo and Luciano
TTITLE14=Vá Pro Inferno Com Seu Amor -  Chitãozinho and Xororó
TTITLE15=Coração Está Em Pedaços - Zezé Di Camargo and Luciano
EXTD=
EXTT0=
EXTT1=
EXTT2=
EXTT3=
EXTT4=
EXTT5=
EXTT6=
EXTT7=
EXTT8=
EXTT9=
EXTT10=
EXTT11=
EXTT12=
EXTT13=
EXTT14=
EXTT15=
PLAYORDER=
